<svg width="317" height="317" viewBox="0 0 317 317" fill="none" xmlns="http://www.w3.org/2000/svg">
<rect width="316.021" height="316.067" rx="158.011" fill="white"/>
<path d="M147.812 2.36743C147.142 2.42832 145.011 2.64143 143.093 2.79366C98.8558 6.78198 57.4199 30.651 31.1762 67.3375C16.5625 87.7357 7.21581 110.874 3.68417 135.382C2.43592 143.938 2.28369 146.464 2.28369 158.064C2.28369 169.664 2.43592 172.191 3.68417 180.746C12.1479 239.231 53.7665 288.37 110.212 306.576C120.32 309.833 130.975 312.056 143.093 313.395C147.812 313.913 168.21 313.913 172.929 313.395C193.845 311.082 211.564 305.906 229.039 296.986C231.719 295.615 232.236 295.25 231.871 294.946C231.627 294.763 220.21 279.449 206.51 260.938L181.606 227.296L150.4 181.111C133.228 155.72 119.102 134.956 118.98 134.956C118.858 134.926 118.737 155.446 118.676 180.502C118.584 224.374 118.554 226.14 118.006 227.175C117.214 228.667 116.605 229.275 115.327 229.945C114.352 230.432 113.5 230.524 108.903 230.524H103.636L102.235 229.641C101.322 229.062 100.652 228.301 100.195 227.418L99.5561 226.048L99.617 165.006L99.7083 103.933L100.652 102.745C101.139 102.106 102.174 101.284 102.905 100.888C104.153 100.279 104.64 100.218 109.907 100.218C116.118 100.218 117.153 100.462 118.767 102.228C119.224 102.715 136.121 128.167 156.336 158.825C176.552 189.484 204.196 231.346 217.775 251.896L242.435 289.252L243.684 288.43C254.735 281.245 266.426 271.016 275.681 260.36C295.379 237.739 308.075 210.156 312.337 180.746C313.586 172.191 313.738 169.664 313.738 158.064C313.738 146.464 313.586 143.938 312.337 135.382C303.874 76.8972 262.255 27.7587 205.81 9.55249C195.854 6.3253 185.259 4.1028 173.386 2.76321C170.463 2.45876 150.339 2.12386 147.812 2.36743ZM211.564 96.5648C213.025 97.2955 214.213 98.696 214.639 100.157C214.882 100.949 214.943 117.876 214.882 156.024L214.791 210.765L205.14 195.968L195.458 181.172V141.38C195.458 115.654 195.58 101.193 195.763 100.492C196.25 98.7873 197.316 97.4477 198.777 96.6562C200.025 96.0168 200.482 95.9559 205.262 95.9559C209.768 95.9559 210.559 96.0168 211.564 96.5648Z" fill="black"/>
<path d="M242.038 291.747C240.958 292.426 240.619 292.889 241.576 292.364C242.254 291.963 243.365 291.13 243.18 291.099C243.088 291.099 242.563 291.408 242.038 291.747ZM239.909 293.136C239.354 293.568 239.354 293.599 240.033 293.26C240.403 293.074 240.712 292.858 240.712 292.797C240.712 292.55 240.557 292.611 239.909 293.136ZM238.366 294.062C237.811 294.494 237.811 294.525 238.49 294.185C238.86 294 239.169 293.784 239.169 293.722C239.169 293.476 239.014 293.537 238.366 294.062ZM236.823 294.988C236.268 295.42 236.268 295.451 236.947 295.111C237.317 294.926 237.626 294.71 237.626 294.648C237.626 294.401 237.471 294.463 236.823 294.988ZM234.478 296.222C233.305 296.84 233.367 297.087 234.54 296.5C235.064 296.222 235.466 295.945 235.466 295.883C235.466 295.667 235.435 295.698 234.478 296.222Z" fill="black"/>
</svg>
