<svg width="272" height="114" viewBox="0 0 272 114" fill="none" xmlns="http://www.w3.org/2000/svg">
<path d="M262.995 79.4872C262.186 74.784 248.25 80.7622 244.868 81.2038C225.827 87.308 206.515 92.8258 186.754 96.0499C161.898 98.8278 113.691 93.0596 101.435 68.2249C112.686 67.4242 149.302 51.5906 148.271 38.534C147.619 31.3172 139.536 28.741 133.334 28.4469C114.985 27.2658 88.313 42.7112 94.5095 63.919C61.9392 64.2767 31.6767 45.7755 11.0368 21.6256C8.48507 19.669 6.4274 13.1107 2.59777 15.4198C1.58832 16.306 1.53668 17.8135 2.37466 18.8247C24.7121 47.3313 58.9588 69.9677 96.2669 68.6812C108.746 96.9065 156.269 102.893 183.74 101.258C203.921 98.593 223.669 92.9857 243.03 86.8007C248.946 84.9244 254.964 83.3681 261.085 82.3149C262.374 82.0981 263.238 80.7606 262.995 79.4872ZM141.098 43.8168C129.2 53.5524 114.906 61.668 99.4566 63.6184C93.9551 48.6198 110.204 38.1047 122.54 34.23C129.027 31.854 150.438 32.9495 141.098 43.8168Z" fill="white"/>
<path d="M257.521 95.1185C259.936 89.4833 269.661 80.396 263.521 74.6188C260.152 73.4149 237.816 59.2074 234.849 61.3959C230.777 65.4917 257.125 77.0891 259.528 79.3959C260.249 84.3 243.258 103.113 248.521 105.619C250.057 107.341 256.021 98.6185 257.521 95.1185Z" fill="white"/>
</svg>
