<svg width="33" height="33" viewBox="0 0 33 33" fill="#FFF" xmlns="http://www.w3.org/2000/svg">
<path d="M15.0418 16.5L12.1254 13.5836C11.9376 13.3891 11.8336 13.1286 11.836 12.8582C11.8383 12.5878 11.9468 12.3291 12.138 12.1379C12.3292 11.9467 12.5878 11.8383 12.8582 11.8359C13.1286 11.8336 13.3891 11.9375 13.5836 12.1254L16.5 15.0418L19.4164 12.1254C19.5115 12.0269 19.6253 11.9483 19.7511 11.8943C19.8769 11.8402 20.0123 11.8118 20.1492 11.8106C20.2861 11.8094 20.4219 11.8355 20.5487 11.8873C20.6754 11.9392 20.7905 12.0158 20.8874 12.1126C20.9842 12.2094 21.0608 12.3246 21.1126 12.4513C21.1645 12.578 21.1906 12.7138 21.1894 12.8508C21.1882 12.9877 21.1597 13.123 21.1057 13.2488C21.0516 13.3746 20.9731 13.4884 20.8746 13.5836L17.9582 16.5L20.8746 19.4163C20.9731 19.5115 21.0516 19.6253 21.1057 19.7511C21.1597 19.8769 21.1882 20.0122 21.1894 20.1491C21.1906 20.2861 21.1645 20.4219 21.1126 20.5486C21.0608 20.6753 20.9842 20.7905 20.8874 20.8873C20.7905 20.9841 20.6754 21.0607 20.5487 21.1126C20.4219 21.1644 20.2861 21.1905 20.1492 21.1893C20.0123 21.1881 19.8769 21.1597 19.7511 21.1056C19.6253 21.0516 19.5115 20.973 19.4164 20.8745L16.5 17.9581L13.5836 20.8745C13.3891 21.0624 13.1286 21.1663 12.8582 21.164C12.5878 21.1616 12.3292 21.0532 12.138 20.862C11.9468 20.6708 11.8383 20.4121 11.836 20.1417C11.8336 19.8713 11.9376 19.6108 12.1254 19.4163L15.0418 16.5Z" fill="#FFF"/>
<path d="M16.5 28.875C18.1251 28.875 19.7343 28.5549 21.2357 27.933C22.7371 27.3111 24.1013 26.3996 25.2504 25.2504C26.3996 24.1013 27.3111 22.7371 27.933 21.2357C28.5549 19.7343 28.875 18.1251 28.875 16.5C28.875 14.8749 28.5549 13.2657 27.933 11.7643C27.3111 10.2629 26.3996 8.89868 25.2504 7.74955C24.1013 6.60043 22.7371 5.68889 21.2357 5.06699C19.7343 4.44509 18.1251 4.125 16.5 4.125C13.2179 4.125 10.0703 5.42879 7.74955 7.74955C5.42879 10.0703 4.125 13.2179 4.125 16.5C4.125 19.7821 5.42879 22.9297 7.74955 25.2504C10.0703 27.5712 13.2179 28.875 16.5 28.875V28.875ZM16.5 30.9375C12.6709 30.9375 8.9987 29.4164 6.29115 26.7089C3.58359 24.0013 2.0625 20.3291 2.0625 16.5C2.0625 12.6709 3.58359 8.9987 6.29115 6.29115C8.9987 3.58359 12.6709 2.0625 16.5 2.0625C20.3291 2.0625 24.0013 3.58359 26.7089 6.29115C29.4164 8.9987 30.9375 12.6709 30.9375 16.5C30.9375 20.3291 29.4164 24.0013 26.7089 26.7089C24.0013 29.4164 20.3291 30.9375 16.5 30.9375Z" fill="#FFF"/>
</svg>
