<svg width="30" height="31" viewBox="0 0 30 31" fill="none" xmlns="http://www.w3.org/2000/svg">
<g clip-path="url(#clip0_99_3483)">
<path d="M20.605 15.47L28.2938 8.79V22.0738L20.605 15.47ZM10.6975 16.6012L13.3975 18.945C13.8213 19.305 14.3738 19.5225 14.9775 19.5225H14.9987H14.9975H15.015C15.62 19.5225 16.1725 19.3038 16.6012 18.9412L16.5975 18.9438L19.2975 16.6L27.505 23.6487H2.49375L10.6975 16.6012ZM2.4825 7.20625H27.52L15.4938 17.6512C15.3585 17.7582 15.1912 17.8163 15.0188 17.8162H15.0013H15.0025H14.985C14.812 17.8165 14.644 17.7578 14.5088 17.65L14.51 17.6512L2.4825 7.20625ZM1.70625 8.78875L9.39375 15.4688L1.70625 22.0687V8.78875ZM28.7062 5.7375C28.4062 5.5875 28.0537 5.5 27.68 5.5H2.32375C1.96145 5.50009 1.60413 5.58439 1.28 5.74625L1.29375 5.74C0.905717 5.93139 0.578935 6.22747 0.350318 6.59481C0.121701 6.96214 0.000359185 7.38608 0 7.81875L0 23.0338C0.000661755 23.6495 0.245566 24.2399 0.680975 24.6753C1.11639 25.1107 1.70674 25.3556 2.3225 25.3563H27.6763C28.292 25.3556 28.8824 25.1107 29.3178 24.6753C29.7532 24.2399 29.9981 23.6495 29.9988 23.0338V7.82375V7.81875C29.9988 6.91 29.475 6.1225 28.7125 5.74375L28.6987 5.7375H28.7062Z" fill="#C2BDBD"/>
</g>
<defs>
<clipPath id="clip0_99_3483">
<rect width="30" height="30" fill="white" transform="translate(0 0.5)"/>
</clipPath>
</defs>
</svg>
