<svg width="30" height="31" viewBox="0 0 30 31" fill="none" xmlns="http://www.w3.org/2000/svg">
<path d="M9.6625 15.4125C9.6625 17.5625 9.6375 17.7 9.375 18C9.1375 18.2125 8.9 18.2875 8.425 18.2875L7.7875 18.3L7.75 15.4625L7.725 12.625H8.375C8.8125 12.625 9.125 12.7125 9.3375 12.8875C9.6375 13.15 9.6625 13.2 9.6625 15.4125ZM27.5 9.875V21.125C27.5 22.5125 26.3875 23.625 25 23.625H5C3.6125 23.625 2.5 22.5125 2.5 21.125V9.875C2.5 8.4875 3.6125 7.375 5 7.375H25C26.3875 7.375 27.5 8.4875 27.5 9.875ZM11.1625 15.1625C11.125 12.8625 11.1 12.675 10.8 12.175C10.3 11.325 9.7375 11.125 7.85 11.125H6.25V19.875H7.7625C9.425 19.875 10.125 19.6625 10.625 18.9875C11.1375 18.325 11.25 17.7625 11.1625 15.1625ZM16.4 11.125H14.55C12.6875 11.125 12.675 11.125 12.4125 11.475C12.15 11.825 12.125 12.0125 12.125 15.5V19.2L12.4625 19.5375C12.775 19.875 12.85 19.875 14.6 19.875H16.4V18.3875L15.0375 18.3375L13.6625 18.3V16.25L14.5125 16.2125L15.3375 16.1625V14.675H13.6V12.625H16.4V11.125ZM23.75 11.2C23.75 11.125 23.375 11.125 22.925 11.125L22.075 11.2L21.3375 14.1375C20.8625 15.9875 20.5625 16.975 20.5 16.8C20.4 16.4625 19.075 11.25 19.075 11.1875C19.075 11.125 18.6875 11.125 18.225 11.125H17.3625L17.875 13.0625C18.125 14.15 18.6125 15.9125 18.8875 17C19.3125 18.6875 19.4625 19.0625 19.825 19.425C20.075 19.7 20.3875 19.875 20.5875 19.875C21 19.875 21.5375 19.45 21.7125 18.9625C21.875 18.625 23.75 11.3625 23.75 11.2Z" fill="#C2BDBD"/>
</svg>
