<svg width="71" height="71" viewBox="0 0 71 71" fill="none" xmlns="http://www.w3.org/2000/svg">
<path d="M35.855 49.7887C35.855 50.1792 36.1567 50.4987 36.5206 50.4987H52.9394C53.3032 50.4987 53.605 50.1792 53.605 49.7887V45.5287C53.605 45.1382 53.3032 44.8187 52.9394 44.8187H36.5206C36.1567 44.8187 35.855 45.1382 35.855 45.5287V49.7887ZM18.5576 50.3301L35.5976 36.0414C35.9349 35.7574 35.9349 35.2337 35.5976 34.9497L18.5576 20.6699C18.4548 20.5824 18.3289 20.5263 18.1951 20.5082C18.0613 20.4901 17.9251 20.5108 17.8027 20.5678C17.6803 20.6248 17.5768 20.7157 17.5045 20.8297C17.4323 20.9438 17.3943 21.0762 17.395 21.2113V26.7759C17.395 26.9889 17.4837 27.1841 17.6524 27.3172L27.3971 35.5L17.6524 43.6828C17.573 43.7492 17.509 43.8319 17.4646 43.9253C17.4201 44.0188 17.3964 44.1207 17.395 44.2241V49.7887C17.395 50.3923 18.0961 50.7206 18.5576 50.3301ZM68.16 0H2.84C1.26912 0 0 1.26912 0 2.84V68.16C0 69.7309 1.26912 71 2.84 71H68.16C69.7309 71 71 69.7309 71 68.16V2.84C71 1.26912 69.7309 0 68.16 0ZM64.61 64.61H6.39V6.39H64.61V64.61Z" fill="white"/>
</svg>
