<svg width="45" height="72" viewBox="0 0 45 72" fill="none" xmlns="http://www.w3.org/2000/svg">
<path d="M6.96875 1H38.0312C41.4299 1 44.1875 3.75759 44.1875 7.15625V64.8438C44.1875 68.2424 41.4299 71 38.0312 71H6.96875C3.57009 71 0.8125 68.2424 0.8125 64.8438V7.15625C0.8125 3.75759 3.57009 1 6.96875 1ZM17.5625 62.625C17.5625 65.3556 19.7694 67.5625 22.5 67.5625C25.2306 67.5625 27.4375 65.3556 27.4375 62.625C27.4375 59.8944 25.2306 57.6875 22.5 57.6875C19.7694 57.6875 17.5625 59.8944 17.5625 62.625ZM36.3672 54.25C37.5586 54.25 38.5312 53.2773 38.5312 52.0859V8.82031C38.5312 7.62894 37.5586 6.65625 36.3672 6.65625H8.63281C7.44144 6.65625 6.46875 7.62894 6.46875 8.82031V52.0859C6.46875 53.2773 7.44144 54.25 8.63281 54.25H36.3672Z" fill="white" stroke="white"/>
</svg>
