<svg width="47" height="72" viewBox="0 0 47 72" fill="none" xmlns="http://www.w3.org/2000/svg">
<path fill-rule="evenodd" clip-rule="evenodd" d="M12.9691 0.5C5.78114 0.5 0.000186544 6.57346 0.000186544 14.0137C0.000186544 18.537 2.13867 22.5544 5.42571 25.0068C3.7316 26.2851 2.35842 27.9453 1.41624 29.8543C0.474057 31.7634 -0.0109199 33.8682 0.000186544 36C0.000186544 40.5262 2.13867 44.5407 5.42571 46.9932C3.7316 48.2714 2.35842 49.9316 1.41624 51.8407C0.474057 53.7497 -0.0109199 55.8545 0.000186544 57.9863C0.000186544 65.4265 5.78114 71.5 12.9691 71.5C20.1542 71.5 25.9381 65.4265 25.9381 57.9863V46.5612C28.2097 48.4688 31.0732 49.5144 34.0309 49.5166C41.2189 49.5137 46.9998 43.4402 46.9998 36C46.9998 31.4738 44.8643 27.4593 41.5743 25.0068C43.2684 23.7286 44.6416 22.0684 45.5838 20.1593C46.5259 18.2503 47.0109 16.1455 46.9998 14.0137C46.9998 6.57346 41.2189 0.5 34.0309 0.5H12.9691ZM4.87346 14.0137C4.87346 9.30696 8.52181 5.53804 12.9691 5.53804H21.0619V22.4893H12.9691C8.52181 22.4893 4.87346 18.7174 4.87346 14.0137ZM34.0309 22.4863H25.9381V5.53508H34.0309C38.4811 5.53508 42.1265 9.30696 42.1265 14.0137C42.1265 18.7174 38.4811 22.4863 34.0309 22.4863ZM4.8764 36C4.8764 31.2962 8.52474 27.5244 12.9721 27.5244H21.0648V44.4756H12.9691C8.51887 44.4756 4.87346 40.7038 4.87346 36H4.8764ZM25.9381 36C25.9381 31.2962 29.5865 27.5244 34.0338 27.5244C38.4841 27.5244 42.1295 31.2933 42.1295 36C42.1295 40.7038 38.4841 44.4756 34.0338 44.4756C29.5865 44.4756 25.941 40.7067 25.941 36H25.9381ZM4.8764 57.9863C4.8764 53.2826 8.52474 49.5137 12.9721 49.5137H21.0648V57.9863C21.0648 62.693 17.4224 66.462 12.9721 66.462C8.52474 66.462 4.8764 62.693 4.8764 57.9863Z" fill="white"/>
</svg>
