<svg width="30" height="31" viewBox="0 0 30 31" fill="none" xmlns="http://www.w3.org/2000/svg">
<path fill-rule="evenodd" clip-rule="evenodd" d="M1.25 4.0475C1.25 3.43817 1.49206 2.85379 1.92292 2.42293C2.35379 1.99206 2.93817 1.75 3.5475 1.75H26.45C26.752 1.74951 27.0511 1.80858 27.3302 1.92384C27.6093 2.03909 27.8629 2.20827 28.0766 2.42167C28.2902 2.63508 28.4597 2.88853 28.5752 3.16752C28.6908 3.4465 28.7502 3.74553 28.75 4.0475V26.95C28.7503 27.252 28.6911 27.5512 28.5757 27.8303C28.4603 28.1094 28.291 28.363 28.0775 28.5766C27.864 28.7903 27.6105 28.9597 27.3314 29.0752C27.0524 29.1908 26.7533 29.2502 26.4513 29.25H3.5475C3.24568 29.25 2.94682 29.1905 2.668 29.075C2.38917 28.9595 2.13584 28.7901 1.92248 28.5766C1.70912 28.3632 1.53991 28.1097 1.42453 27.8309C1.30914 27.552 1.24984 27.2531 1.25 26.9513V4.0475ZM12.135 12.235H15.8588V14.105C16.3963 13.03 17.7713 12.0625 19.8375 12.0625C23.7988 12.0625 24.7375 14.2038 24.7375 18.1325V25.41H20.7288V19.0275C20.7288 16.79 20.1913 15.5275 18.8263 15.5275C16.9325 15.5275 16.145 16.8888 16.145 19.0275V25.41H12.135V12.235ZM5.26 25.2388H9.27V12.0625H5.26V25.2375V25.2388ZM9.84375 7.765C9.85131 8.10834 9.79022 8.44974 9.66405 8.76915C9.53788 9.08856 9.34919 9.37955 9.10904 9.62504C8.86889 9.87054 8.58212 10.0656 8.26557 10.1988C7.94902 10.3319 7.60905 10.4005 7.26563 10.4005C6.9222 10.4005 6.58224 10.3319 6.26568 10.1988C5.94913 10.0656 5.66236 9.87054 5.42221 9.62504C5.18206 9.37955 4.99337 9.08856 4.8672 8.76915C4.74104 8.44974 4.67994 8.10834 4.6875 7.765C4.70234 7.09107 4.98048 6.44974 5.46236 5.97836C5.94423 5.50698 6.59153 5.24303 7.26563 5.24303C7.93972 5.24303 8.58702 5.50698 9.06889 5.97836C9.55077 6.44974 9.82891 7.09107 9.84375 7.765Z" fill="#C2BDBD"/>
</svg>
