<svg width="30" height="31" viewBox="0 0 30 31" fill="none" xmlns="http://www.w3.org/2000/svg">
<path d="M23.6849 14.39C23.1386 10.0875 19.4536 6.75 15.0049 6.75C11.5599 6.75 8.56738 8.76375 7.20113 11.9375C4.51613 12.74 2.50488 15.275 2.50488 18C2.50488 21.4462 5.30863 24.25 8.75488 24.25H10.0049V21.75H8.75488C6.68738 21.75 5.00488 20.0675 5.00488 18C5.00488 16.245 6.50363 14.5538 8.34613 14.23L9.07238 14.1025L9.31238 13.405C10.1911 10.8413 12.3724 9.25 15.0049 9.25C18.4511 9.25 21.2549 12.0538 21.2549 15.5V16.75H22.5049C23.8836 16.75 25.0049 17.8713 25.0049 19.25C25.0049 20.6287 23.8836 21.75 22.5049 21.75H20.0049V24.25H22.5049C25.2624 24.25 27.5049 22.0075 27.5049 19.25C27.5034 18.1294 27.1263 17.0416 26.4338 16.1606C25.7413 15.2796 24.7734 14.6562 23.6849 14.39Z" fill="#C2BDBD"/>
<path d="M16.2549 18V13H13.7549V18H10.0049L15.0049 24.25L20.0049 18H16.2549Z" fill="#C2BDBD"/>
</svg>
