<svg width="73" height="31" viewBox="0 0 73 31" fill="none" xmlns="http://www.w3.org/2000/svg">
<path d="M13.5 24.95L2 15.5L7.75 10.775L13.5 6.05M58.5 24.95L71 15.5L58.5 6.05M23.5 2L16.375 29" stroke="white" stroke-width="3" stroke-linecap="round" stroke-linejoin="round" class="svg-elem-1"></path>
<path d="M38.8438 14.6406V6.49219H37.4375V5.13281H46.4688V8.40625H45.125V6.49219H40.4844V9.72656H44.5234V11.0859H40.4844V14.6406H45.125V12.6641H46.4688V16H37.4375V14.6406H38.8438Z" fill="#F89D24" class="svg-elem-2"></path>
<path d="M28 5.75L36.2583 5.75" stroke="white" stroke-width="3" class="svg-elem-3"></path>
<path d="M28 26H46" stroke="white" stroke-width="3" class="svg-elem-4"></path>
<line x1="32.5" y1="6" x2="32.5" y2="27" stroke="white" stroke-width="3" class="svg-elem-5"></line>
<path d="M46 18.5L46 27.5" stroke="white" stroke-width="3" class="svg-elem-6"></path>
<g filter="url(#filter0_d_182_259)">
<path d="M54 25.2676C54 26.3721 53.1046 27.2676 52 27.2676C50.8954 27.2676 50 26.3721 50 25.2676C50 24.163 50.8954 23.2676 52 23.2676C53.1046 23.2676 54 24.163 54 25.2676Z" fill="#F89D24" class="svg-elem-7"></path>
</g>
<defs>
<filter id="filter0_d_182_259" x="49" y="23.2676" width="5" height="4" filterUnits="userSpaceOnUse" color-interpolation-filters="sRGB">
<feFlood flood-opacity="0" result="BackgroundImageFix"></feFlood>
<feColorMatrix in="SourceAlpha" type="matrix" values="0 0 0 0 0 0 0 0 0 0 0 0 0 0 0 0 0 0 127 0" result="hardAlpha"></feColorMatrix>
<feOffset dx="-1"></feOffset>
<feComposite in2="hardAlpha" operator="out"></feComposite>
<feColorMatrix type="matrix" values="0 0 0 0 1 0 0 0 0 1 0 0 0 0 1 0 0 0 1 0"></feColorMatrix>
<feBlend mode="normal" in2="BackgroundImageFix" result="effect1_dropShadow_182_259"></feBlend>
<feBlend mode="normal" in="SourceGraphic" in2="effect1_dropShadow_182_259" result="shape"></feBlend>
</filter>
</defs>
</svg>