<svg width="24" height="24" viewBox="0 0 24 24" fill="current" xmlns="http://www.w3.org/2000/svg">
<path d="M15.3372 23.979L22.5532 22.418C22.5532 22.418 19.9492 4.805 19.9282 4.688C19.9102 4.572 19.8142 4.496 19.7172 4.496C19.6202 4.496 17.7882 4.36 17.7882 4.36C17.7882 4.36 16.5132 3.086 16.3492 2.949C16.3042 2.912 16.2742 2.892 16.2282 2.875L15.3142 23.979H15.3372ZM11.7102 11.305C11.7102 11.305 10.9002 10.881 9.93624 10.881C8.48924 10.881 8.43224 11.787 8.43224 12.022C8.43224 13.254 11.6722 13.737 11.6722 16.651C11.6722 18.946 10.2322 20.411 8.26624 20.411C5.91224 20.411 4.72624 18.946 4.72624 18.946L5.37224 16.86C5.37224 16.86 6.61724 17.926 7.65224 17.926C8.32724 17.926 8.62724 17.381 8.62724 16.994C8.62724 15.375 5.97324 15.3 5.97324 12.635C5.93924 10.398 7.54424 8.219 10.8002 8.219C12.0572 8.219 12.6752 8.58 12.6752 8.58L11.7302 11.295L11.7102 11.305ZM11.1702 0.83C11.3062 0.83 11.4412 0.868 11.5752 0.965C10.5912 1.43 9.51124 2.604 9.06724 4.957C8.41124 5.17 7.77424 5.362 7.17824 5.535C7.69724 3.75 8.95124 0.84 11.1702 0.84V0.83ZM12.4052 3.779V3.914C11.6512 4.146 10.8222 4.398 10.0112 4.65C10.4772 2.873 11.3442 2.005 12.0962 1.679C12.2892 2.18 12.4052 2.855 12.4052 3.779ZM12.9442 1.545C13.6382 1.619 14.0852 2.412 14.3732 3.3C14.0242 3.414 13.6382 3.531 13.2152 3.666V3.414C13.2152 2.662 13.1192 2.043 12.9442 1.543V1.545ZM15.9362 2.834C15.9162 2.834 15.8762 2.855 15.8582 2.855C15.8402 2.855 15.5692 2.93 15.1442 3.065C14.7212 1.832 13.9682 0.695 12.6362 0.695H12.5212C12.1352 0.209 11.6692 0 11.2652 0C8.15924 0 6.67524 3.877 6.21024 5.846C5.01624 6.211 4.14724 6.482 4.05024 6.52C3.37524 6.733 3.35624 6.752 3.27824 7.39C3.20324 7.852 1.44824 21.453 1.44824 21.453L15.0092 24L15.9362 2.834Z" fill="current"/>
</svg>
