<svg width="24" height="22" viewBox="0 0 24 22" fill="current" xmlns="http://www.w3.org/2000/svg">
<path d="M22.2026 0.792511H4.28111C2.89141 0.792511 2.00161 2.26231 2.65181 3.48421L4.44451 6.86151H1.19461C0.988908 6.86156 0.786669 6.91449 0.607312 7.01521C0.428291 7.1157 0.278249 7.26072 0.171712 7.43621C0.0654894 7.61137 0.00650153 7.81108 0.000507372 8.01585C-0.00548679 8.22061 0.0417176 8.42344 0.137512 8.60451L5.90351 19.4625C6.00521 19.6535 6.15721 19.8132 6.34341 19.9247C6.52964 20.0362 6.74264 20.0951 6.95971 20.0951C7.17678 20.0951 7.38978 20.0362 7.57601 19.9247C7.76192 19.8135 7.91398 19.6536 8.01581 19.4624L9.58181 16.5294L11.5465 20.23C12.2379 21.5316 14.111 21.534 14.8049 20.2338L23.7877 3.41601C24.4227 2.22651 23.5563 0.792511 22.2026 0.792511ZM14.1523 7.97801L10.279 15.2313C10.2112 15.3585 10.11 15.4647 9.98631 15.5387C9.8624 15.6128 9.72071 15.652 9.57631 15.652C9.43192 15.652 9.29022 15.6128 9.16631 15.5387C9.04264 15.4647 8.94145 15.3585 8.87361 15.2313L5.03771 8.00861C4.97364 7.88827 4.94187 7.75336 4.94552 7.61707C4.94916 7.48078 4.9881 7.34776 5.05851 7.23101C5.12907 7.11401 5.22866 7.01722 5.34761 6.95001C5.4668 6.88266 5.60131 6.84709 5.73821 6.84671H13.4689C13.6024 6.8467 13.7336 6.88107 13.8499 6.94651C13.9661 7.01181 14.0633 7.10607 14.1322 7.22011C14.2009 7.3339 14.2389 7.46359 14.2424 7.59647C14.2459 7.72935 14.2149 7.86076 14.1523 7.97801Z" fill="current"/>
</svg>
