<svg width="34" height="30" viewBox="0 0 34 30" fill="none" xmlns="http://www.w3.org/2000/svg">
<path d="M0.666748 2.50008C0.666748 1.94755 0.886242 1.41764 1.27694 1.02694C1.66764 0.636242 2.19755 0.416748 2.75008 0.416748H31.9167C32.4693 0.416748 32.9992 0.636242 33.3899 1.02694C33.7806 1.41764 34.0001 1.94755 34.0001 2.50008C34.0001 3.05262 33.7806 3.58252 33.3899 3.97322C32.9992 4.36392 32.4693 4.58341 31.9167 4.58341H2.75008C2.19755 4.58341 1.66764 4.36392 1.27694 3.97322C0.886242 3.58252 0.666748 3.05262 0.666748 2.50008ZM0.666748 27.5001C0.666748 26.9475 0.886242 26.4176 1.27694 26.0269C1.66764 25.6362 2.19755 25.4167 2.75008 25.4167H31.9167C32.4693 25.4167 32.9992 25.6362 33.3899 26.0269C33.7806 26.4176 34.0001 26.9475 34.0001 27.5001C34.0001 28.0526 33.7806 28.5825 33.3899 28.9732C32.9992 29.3639 32.4693 29.5834 31.9167 29.5834H2.75008C2.19755 29.5834 1.66764 29.3639 1.27694 28.9732C0.886242 28.5825 0.666748 28.0526 0.666748 27.5001ZM15.2501 12.9167C14.6975 12.9167 14.1676 13.1362 13.7769 13.5269C13.3862 13.9176 13.1667 14.4475 13.1667 15.0001C13.1667 15.5526 13.3862 16.0825 13.7769 16.4732C14.1676 16.8639 14.6975 17.0834 15.2501 17.0834H31.9167C32.4693 17.0834 32.9992 16.8639 33.3899 16.4732C33.7806 16.0825 34.0001 15.5526 34.0001 15.0001C34.0001 14.4475 33.7806 13.9176 33.3899 13.5269C32.9992 13.1362 32.4693 12.9167 31.9167 12.9167H15.2501Z" fill="#FBFBFB"/>
</svg>
